<?xml version="1.0"?>
<svg width="7000" height="4258"
     xmlns="http://www.w3.org/2000/svg"
     shape-rendering="crispEdges">
<polygon points="3744,2070 4210,2040 3709,1861" style="fill:rgb(76,103,147)"/>
<polygon points="4210,2040 4223,1800 3709,1861" style="fill:rgb(47,82,135)"/>
<polygon points="3744,2070 4192,2103 4210,2040" style="fill:rgb(56,90,144)"/>
<polygon points="4223,1800 4071,1635 3709,1861" style="fill:rgb(102,99,114)"/>
<polygon points="4071,1635 3660,1730 3709,1861" style="fill:rgb(110,99,113)"/>
<polygon points="3131,2091 3398,2379 3744,2070" style="fill:rgb(29,77,148)"/>
<polygon points="4365,1618 4083,1516 4071,1635" style="fill:rgb(65,91,130)"/>
<polygon points="4071,1635 3645,1637 3660,1730" style="fill:rgb(104,102,112)"/>
<polygon points="3634,1555 3645,1637 4071,1635" style="fill:rgb(63,93,136)"/>
<polygon points="3744,2070 4148,2325 4192,2103" style="fill:rgb(23,75,148)"/>
<polygon points="4654,2092 4453,1901 4210,2040" style="fill:rgb(79,103,132)"/>
<polygon points="4654,2092 4210,2040 4192,2103" style="fill:rgb(44,79,132)"/>
<polygon points="4210,2040 4453,1901 4223,1800" style="fill:rgb(45,83,135)"/>
<polygon points="4223,1800 4365,1618 4071,1635" style="fill:rgb(106,103,111)"/>
<polygon points="4083,1516 3634,1555 4071,1635" style="fill:rgb(77,93,124)"/>
<polygon points="4453,1901 4365,1618 4223,1800" style="fill:rgb(68,91,121)"/>
<polygon points="4765,1599 4386,1512 4365,1618" style="fill:rgb(39,80,133)"/>
<polygon points="4365,1618 4386,1512 4083,1516" style="fill:rgb(56,85,126)"/>
<polygon points="4239,1347 4031,1317 4083,1516" style="fill:rgb(147,114,116)"/>
<polygon points="4083,1516 4031,1317 3634,1555" style="fill:rgb(160,103,105)"/>
<polygon points="4386,1512 4239,1347 4083,1516" style="fill:rgb(133,105,109)"/>
<polygon points="4239,1347 4058,1255 4031,1317" style="fill:rgb(155,107,114)"/>
<polygon points="4031,1317 3894,1202 3634,1555" style="fill:rgb(168,108,111)"/>
<polygon points="4667,2394 4654,2092 4192,2103" style="fill:rgb(11,73,147)"/>
<polygon points="4453,1901 4734,1839 4365,1618" style="fill:rgb(67,87,118)"/>
<polygon points="4058,1255 3894,1202 4031,1317" style="fill:rgb(27,62,127)"/>
<polygon points="3184,1831 3744,2070 3709,1861" style="fill:rgb(58,90,145)"/>
<polygon points="3744,2070 3398,2379 4148,2325" style="fill:rgb(35,83,150)"/>
<polygon points="3184,1831 3709,1861 3660,1730" style="fill:rgb(88,98,121)"/>
<polygon points="3184,1831 3660,1730 3645,1637" style="fill:rgb(121,106,114)"/>
<polygon points="4654,2092 4712,1955 4453,1901" style="fill:rgb(78,100,128)"/>
<polygon points="3894,1202 3663,1246 3634,1555" style="fill:rgb(127,111,118)"/>
<polygon points="3108,1643 3184,1831 3645,1637" style="fill:rgb(122,105,113)"/>
<polygon points="3398,2379 4180,2651 4148,2325" style="fill:rgb(51,100,162)"/>
<polygon points="4148,2325 4667,2394 4192,2103" style="fill:rgb(23,81,151)"/>
<polygon points="4712,1955 4734,1839 4453,1901" style="fill:rgb(28,73,134)"/>
<polygon points="4386,1512 4252,1207 4239,1347" style="fill:rgb(121,97,118)"/>
<polygon points="4239,1347 4252,1207 4058,1255" style="fill:rgb(59,76,123)"/>
<polygon points="4058,1255 3906,1082 3894,1202" style="fill:rgb(28,64,130)"/>
<polygon points="4911,1269 4252,1207 4386,1512" style="fill:rgb(62,79,123)"/>
<polygon points="3108,1643 3645,1637 3634,1555" style="fill:rgb(62,90,133)"/>
<polygon points="3894,1202 3685,1153 3663,1246" style="fill:rgb(91,91,119)"/>
<polygon points="3663,1246 3427,1281 3634,1555" style="fill:rgb(141,111,116)"/>
<polygon points="3906,1082 3685,1153 3894,1202" style="fill:rgb(16,61,132)"/>
<polygon points="4180,2651 4667,2394 4148,2325" style="fill:rgb(46,98,161)"/>
<polygon points="5439,2077 5371,1935 4712,1955" style="fill:rgb(75,99,130)"/>
<polygon points="4712,1955 5371,1935 4734,1839" style="fill:rgb(20,73,140)"/>
<polygon points="3639,1081 3427,1281 3663,1246" style="fill:rgb(172,112,116)"/>
<polygon points="4225,1009 3906,1082 4058,1255" style="fill:rgb(126,103,121)"/>
<polygon points="3184,1831 3131,2091 3744,2070" style="fill:rgb(71,101,150)"/>
<polygon points="4823,1501 4765,1599 5341,1623" style="fill:rgb(26,79,140)"/>
<polygon points="4734,1839 4765,1599 4365,1618" style="fill:rgb(89,93,112)"/>
<polygon points="3639,1081 3409,1270 3427,1281" style="fill:rgb(82,85,121)"/>
<polygon points="3096,1555 3108,1643 3634,1555" style="fill:rgb(101,103,123)"/>
<polygon points="4897,1048 4258,1099 4252,1207" style="fill:rgb(121,103,119)"/>
<polygon points="4252,1207 4258,1099 4058,1255" style="fill:rgb(114,94,117)"/>
<polygon points="3096,1555 3634,1555 3427,1281" style="fill:rgb(167,106,109)"/>
<polygon points="3184,1831 2919,2057 3131,2091" style="fill:rgb(71,100,147)"/>
<polygon points="3671,1031 3639,1081 3685,1153" style="fill:rgb(87,83,120)"/>
<polygon points="3685,1153 3639,1081 3663,1246" style="fill:rgb(170,114,119)"/>
<polygon points="3906,1082 3671,1031 3685,1153" style="fill:rgb(8,59,136)"/>
<polygon points="3639,1081 3273,980 3409,1270" style="fill:rgb(8,59,139)"/>
<polygon points="3690,911 3671,1031 3906,1082" style="fill:rgb(16,64,141)"/>
<polygon points="2873,2524 3364,2648 3398,2379" style="fill:rgb(62,108,166)"/>
<polygon points="3398,2379 3364,2648 4180,2651" style="fill:rgb(59,108,168)"/>
<polygon points="3409,1270 3096,1555 3427,1281" style="fill:rgb(138,106,120)"/>
<polygon points="2719,1806 2919,2057 3184,1831" style="fill:rgb(75,97,139)"/>
<polygon points="3064,1479 3096,1555 3409,1270" style="fill:rgb(143,101,116)"/>
<polygon points="4720,834 4225,1009 4258,1099" style="fill:rgb(123,100,125)"/>
<polygon points="4258,1099 4225,1009 4058,1255" style="fill:rgb(116,101,123)"/>
<polygon points="5341,1623 4765,1599 4734,1839" style="fill:rgb(89,99,120)"/>
<polygon points="4765,1599 4823,1501 4386,1512" style="fill:rgb(24,75,135)"/>
<polygon points="3101,1253 3064,1479 3409,1270" style="fill:rgb(100,95,122)"/>
<polygon points="3096,1555 2993,1552 3108,1643" style="fill:rgb(127,108,125)"/>
<polygon points="3064,1479 2993,1552 3096,1555" style="fill:rgb(179,107,112)"/>
<polygon points="4180,2651 4755,2616 4667,2394" style="fill:rgb(47,105,169)"/>
<polygon points="4667,2394 5417,2352 4654,2092" style="fill:rgb(17,81,151)"/>
<polygon points="4225,1009 3690,911 3906,1082" style="fill:rgb(69,91,168)"/>
<polygon points="3671,1031 3273,980 3639,1081" style="fill:rgb(15,60,129)"/>
<polygon points="2719,1806 3184,1831 3108,1643" style="fill:rgb(113,109,117)"/>
<polygon points="3131,2091 2919,2285 3398,2379" style="fill:rgb(34,82,150)"/>
<polygon points="3064,1479 2872,1511 2993,1552" style="fill:rgb(91,95,120)"/>
<polygon points="3273,980 3101,1253 3409,1270" style="fill:rgb(13,63,142)"/>
<polygon points="2919,2057 2919,2285 3131,2091" style="fill:rgb(30,79,149)"/>
<polygon points="5296,1323 4911,1269 4823,1501" style="fill:rgb(136,101,108)"/>
<polygon points="4823,1501 4911,1269 4386,1512" style="fill:rgb(69,82,119)"/>
<polygon points="2870,1224 2872,1511 3064,1479" style="fill:rgb(95,95,123)"/>
<polygon points="2993,1552 2719,1806 3108,1643" style="fill:rgb(113,105,120)"/>
<polygon points="2400,2376 2873,2524 2919,2285" style="fill:rgb(61,103,161)"/>
<polygon points="3690,911 3273,980 3671,1031" style="fill:rgb(95,90,120)"/>
<polygon points="3101,1253 2870,1224 3064,1479" style="fill:rgb(102,94,124)"/>
<polygon points="3100,2947 3602,3042 3364,2648" style="fill:rgb(80,119,170)"/>
<polygon points="3364,2648 3602,3042 4180,2651" style="fill:rgb(71,115,170)"/>
<polygon points="4180,2651 4823,2859 4755,2616" style="fill:rgb(58,115,176)"/>
<polygon points="2579,2074 2919,2285 2919,2057" style="fill:rgb(35,81,149)"/>
<polygon points="2919,2285 2873,2524 3398,2379" style="fill:rgb(54,98,158)"/>
<polygon points="2872,1511 2719,1806 2993,1552" style="fill:rgb(85,93,124)"/>
<polygon points="4564,3196 4823,2859 4180,2651" style="fill:rgb(65,112,167)"/>
<polygon points="4755,2616 5184,2616 4667,2394" style="fill:rgb(34,103,170)"/>
<polygon points="4911,1269 4897,1048 4252,1207" style="fill:rgb(111,97,117)"/>
<polygon points="4225,1009 4409,341 3690,911" style="fill:rgb(68,92,176)"/>
<polygon points="3690,911 3209,893 3273,980" style="fill:rgb(49,81,165)"/>
<polygon points="3273,980 3103,980 3101,1253" style="fill:rgb(4,58,140)"/>
<polygon points="3209,893 3103,980 3273,980" style="fill:rgb(3,54,138)"/>
<polygon points="2872,1511 2672,1630 2719,1806" style="fill:rgb(77,85,120)"/>
<polygon points="3103,980 2870,1224 3101,1253" style="fill:rgb(52,79,129)"/>
<polygon points="3602,3042 3958,3230 4180,2651" style="fill:rgb(73,118,173)"/>
<polygon points="4897,1048 4720,834 4258,1099" style="fill:rgb(174,106,110)"/>
<polygon points="3320,265 3069,804 3209,893" style="fill:rgb(57,85,176)"/>
<polygon points="2610,1251 2672,1630 2872,1511" style="fill:rgb(54,75,134)"/>
<polygon points="2719,1806 2578,1980 2919,2057" style="fill:rgb(67,95,146)"/>
<polygon points="2873,2524 3100,2947 3364,2648" style="fill:rgb(76,118,173)"/>
<polygon points="3414,3599 4054,3454 3958,3230" style="fill:rgb(10,53,121)"/>
<polygon points="2550,1871 2578,1980 2719,1806" style="fill:rgb(77,95,136)"/>
<polygon points="2564,2808 3084,3022 3100,2947" style="fill:rgb(58,89,140)"/>
<polygon points="2578,1980 2579,2074 2919,2057" style="fill:rgb(86,111,149)"/>
<polygon points="5165,2709 5184,2616 4755,2616" style="fill:rgb(30,111,185)"/>
<polygon points="4911,1269 5296,1323 4897,1048" style="fill:rgb(121,101,114)"/>
<polygon points="5439,2077 4712,1955 4654,2092" style="fill:rgb(73,100,131)"/>
<polygon points="3958,3230 4564,3196 4180,2651" style="fill:rgb(71,117,173)"/>
<polygon points="4823,2859 5165,2709 4755,2616" style="fill:rgb(48,113,177)"/>
<polygon points="5372,1786 5341,1623 4734,1839" style="fill:rgb(67,93,130)"/>
<polygon points="3110,3180 3084,3022 2471,3043" style="fill:rgb(53,83,140)"/>
<polygon points="3100,2947 3084,3022 3602,3042" style="fill:rgb(73,108,153)"/>
<polygon points="5371,1935 5372,1786 4734,1839" style="fill:rgb(11,72,142)"/>
<polygon points="2360,1660 2550,1871 2672,1630" style="fill:rgb(107,110,123)"/>
<polygon points="2672,1630 2550,1871 2719,1806" style="fill:rgb(130,103,115)"/>
<polygon points="1900,2040 2400,2376 2579,2074" style="fill:rgb(38,89,161)"/>
<polygon points="5093,3096 5165,2709 4823,2859" style="fill:rgb(59,107,161)"/>
<polygon points="5417,2352 5439,2077 4654,2092" style="fill:rgb(6,71,145)"/>
<polygon points="3209,893 3069,804 3103,980" style="fill:rgb(26,65,133)"/>
<polygon points="3103,980 2816,1064 2870,1224" style="fill:rgb(87,93,122)"/>
<polygon points="2870,1224 2610,1251 2872,1511" style="fill:rgb(92,89,130)"/>
<polygon points="3320,265 3209,893 3690,911" style="fill:rgb(61,87,175)"/>
<polygon points="2830,968 2816,1064 3103,980" style="fill:rgb(109,96,116)"/>
<polygon points="5350,1417 4823,1501 5341,1623" style="fill:rgb(7,72,145)"/>
<polygon points="5350,1417 5296,1323 4823,1501" style="fill:rgb(47,77,126)"/>
<polygon points="4897,1048 5087,716 4720,834" style="fill:rgb(161,107,111)"/>
<polygon points="3069,804 2988,841 3103,980" style="fill:rgb(108,91,118)"/>
<polygon points="5453,1230 5350,1417 5659,1262" style="fill:rgb(28,72,131)"/>
<polygon points="5417,2352 4667,2394 5184,2616" style="fill:rgb(35,96,159)"/>
<polygon points="5371,1935 5906,2014 5372,1786" style="fill:rgb(8,69,141)"/>
<polygon points="5659,1262 5350,1417 5341,1623" style="fill:rgb(3,70,149)"/>
<polygon points="3958,3230 4268,3375 4564,3196" style="fill:rgb(59,86,127)"/>
<polygon points="4054,3454 4268,3375 3958,3230" style="fill:rgb(2,50,123)"/>
<polygon points="2988,841 2830,968 3103,980" style="fill:rgb(141,102,116)"/>
<polygon points="2816,1064 2610,1251 2870,1224" style="fill:rgb(38,71,138)"/>
<polygon points="5528,2507 5417,2352 5184,2616" style="fill:rgb(34,99,166)"/>
<polygon points="2691,1012 2610,1251 2816,1064" style="fill:rgb(43,71,134)"/>
<polygon points="2564,2808 3100,2947 2873,2524" style="fill:rgb(79,121,178)"/>
<polygon points="3084,3022 3110,3180 3602,3042" style="fill:rgb(30,68,130)"/>
<polygon points="3414,3599 3958,3230 3602,3042" style="fill:rgb(5,53,124)"/>
<polygon points="2830,968 2691,1012 2816,1064" style="fill:rgb(120,98,128)"/>
<polygon points="2675,306 2691,1012 2830,968" style="fill:rgb(52,89,189)"/>
<polygon points="2427,1216 2453,1369 2610,1251" style="fill:rgb(122,101,127)"/>
<polygon points="2610,1251 2453,1369 2672,1630" style="fill:rgb(150,110,121)"/>
<polygon points="2550,1871 1913,1919 2578,1980" style="fill:rgb(67,96,154)"/>
<polygon points="4751,3486 4564,3196 4268,3375" style="fill:rgb(61,82,116)"/>
<polygon points="4751,3486 5093,3096 4564,3196" style="fill:rgb(67,83,111)"/>
<polygon points="4564,3196 5093,3096 4823,2859" style="fill:rgb(70,111,161)"/>
<polygon points="5165,2709 5528,2507 5184,2616" style="fill:rgb(21,109,186)"/>
<polygon points="2453,1369 2360,1660 2672,1630" style="fill:rgb(135,123,128)"/>
<polygon points="2579,2074 2400,2376 2919,2285" style="fill:rgb(40,89,158)"/>
<polygon points="1900,2040 2579,2074 2578,1980" style="fill:rgb(78,105,149)"/>
<polygon points="5659,1262 5341,1623 5959,1662" style="fill:rgb(4,68,150)"/>
<polygon points="5350,1417 5453,1230 5296,1323" style="fill:rgb(29,72,128)"/>
<polygon points="5389,901 5087,716 4897,1048" style="fill:rgb(150,112,114)"/>
<polygon points="5098,658 4409,341 4720,834" style="fill:rgb(66,91,175)"/>
<polygon points="4720,834 4409,341 4225,1009" style="fill:rgb(66,92,177)"/>
<polygon points="2538,3454 3214,3387 3110,3180" style="fill:rgb(6,54,128)"/>
<polygon points="3110,3180 3214,3387 3602,3042" style="fill:rgb(3,53,129)"/>
<polygon points="5440,1041 4897,1048 5296,1323" style="fill:rgb(112,101,118)"/>
<polygon points="2691,1012 2536,1102 2610,1251" style="fill:rgb(175,110,121)"/>
<polygon points="2453,1369 2171,1279 2360,1660" style="fill:rgb(187,115,121)"/>
<polygon points="2400,2376 2564,2808 2873,2524" style="fill:rgb(75,116,171)"/>
<polygon points="5864,2773 5528,2507 5165,2709" style="fill:rgb(28,110,189)"/>
<polygon points="5923,2059 5906,2014 5439,2077" style="fill:rgb(60,87,125)"/>
<polygon points="5959,1662 5341,1623 5372,1786" style="fill:rgb(44,82,132)"/>
<polygon points="4179,3782 4238,3583 4054,3454" style="fill:rgb(28,59,112)"/>
<polygon points="4054,3454 4238,3583 4268,3375" style="fill:rgb(11,53,121)"/>
<polygon points="2536,1102 2427,1216 2610,1251" style="fill:rgb(160,111,121)"/>
<polygon points="5446,719 5098,658 5087,716" style="fill:rgb(108,92,116)"/>
<polygon points="5087,716 5098,658 4720,834" style="fill:rgb(140,98,117)"/>
<polygon points="5453,1230 5440,1041 5296,1323" style="fill:rgb(97,90,109)"/>
<polygon points="4238,3583 4751,3486 4268,3375" style="fill:rgb(7,52,119)"/>
<polygon points="5440,1041 5389,901 4897,1048" style="fill:rgb(174,106,109)"/>
<polygon points="3101,3828 3414,3599 3214,3387" style="fill:rgb(23,60,121)"/>
<polygon points="3214,3387 3414,3599 3602,3042" style="fill:rgb(7,54,126)"/>
<polygon points="3716,63 3320,265 3690,911" style="fill:rgb(66,88,171)"/>
<polygon points="3069,804 2675,306 2988,841" style="fill:rgb(55,87,181)"/>
<polygon points="2988,841 2675,306 2830,968" style="fill:rgb(52,88,185)"/>
<polygon points="2691,1012 2327,332 2536,1102" style="fill:rgb(55,91,188)"/>
<polygon points="1933,1115 2171,1279 2427,1216" style="fill:rgb(107,103,145)"/>
<polygon points="5453,1230 5659,1262 5440,1041" style="fill:rgb(100,89,111)"/>
<polygon points="5685,999 5446,719 5389,901" style="fill:rgb(168,102,106)"/>
<polygon points="5906,2014 5371,1935 5439,2077" style="fill:rgb(67,92,126)"/>
<polygon points="3630,3935 4179,3782 4054,3454" style="fill:rgb(36,62,113)"/>
<polygon points="4238,3583 4837,3746 4751,3486" style="fill:rgb(8,53,121)"/>
<polygon points="2214,2872 2471,3043 2564,2808" style="fill:rgb(54,87,145)"/>
<polygon points="2564,2808 2471,3043 3084,3022" style="fill:rgb(53,80,135)"/>
<polygon points="4409,341 3716,63 3690,911" style="fill:rgb(71,90,170)"/>
<polygon points="5389,901 5446,719 5087,716" style="fill:rgb(122,108,117)"/>
<polygon points="5098,658 5186,98 4409,341" style="fill:rgb(64,88,171)"/>
<polygon points="4409,341 5186,98 3716,63" style="fill:rgb(69,87,163)"/>
<polygon points="5685,999 5389,901 5440,1041" style="fill:rgb(157,106,112)"/>
<polygon points="1933,1115 2427,1216 2536,1102" style="fill:rgb(97,102,155)"/>
<polygon points="2427,1216 2171,1279 2453,1369" style="fill:rgb(122,100,130)"/>
<polygon points="1933,2657 2230,2767 2400,2376" style="fill:rgb(77,119,177)"/>
<polygon points="2400,2376 2230,2767 2564,2808" style="fill:rgb(78,119,173)"/>
<polygon points="1987,1780 2550,1871 2360,1660" style="fill:rgb(108,109,125)"/>
<polygon points="2214,2872 2449,3123 2471,3043" style="fill:rgb(11,59,133)"/>
<polygon points="2471,3043 2449,3123 3110,3180" style="fill:rgb(44,80,140)"/>
<polygon points="5439,2077 5417,2352 5931,2311" style="fill:rgb(13,75,146)"/>
<polygon points="5923,2059 5439,2077 5931,2311" style="fill:rgb(8,67,139)"/>
<polygon points="5355,3349 5371,3274 5093,3096" style="fill:rgb(59,90,128)"/>
<polygon points="5093,3096 5371,3274 5165,2709" style="fill:rgb(55,110,173)"/>
<polygon points="5355,3349 5093,3096 5142,3688" style="fill:rgb(73,89,115)"/>
<polygon points="6064,1053 5685,999 5659,1262" style="fill:rgb(113,94,109)"/>
<polygon points="5659,1262 5685,999 5440,1041" style="fill:rgb(107,98,116)"/>
<polygon points="5931,2311 5417,2352 5528,2507" style="fill:rgb(35,91,152)"/>
<polygon points="5906,2014 5959,1662 5372,1786" style="fill:rgb(9,68,138)"/>
<polygon points="2171,1279 2024,1555 2360,1660" style="fill:rgb(151,114,123)"/>
<polygon points="2024,1555 1987,1780 2360,1660" style="fill:rgb(146,119,123)"/>
<polygon points="5142,3688 5093,3096 4751,3486" style="fill:rgb(69,87,114)"/>
<polygon points="5925,2479 5931,2311 5528,2507" style="fill:rgb(35,96,163)"/>
<polygon points="1933,2657 2214,2872 2230,2767" style="fill:rgb(53,85,142)"/>
<polygon points="2230,2767 2214,2872 2564,2808" style="fill:rgb(57,90,144)"/>
<polygon points="5925,2479 5528,2507 5864,2773" style="fill:rgb(35,110,188)"/>
<polygon points="6029,1474 5959,1662 6370,2003" style="fill:rgb(1,64,146)"/>
<polygon points="6370,2003 5959,1662 5906,2014" style="fill:rgb(5,65,138)"/>
<polygon points="4179,3782 4837,3746 4238,3583" style="fill:rgb(29,60,112)"/>
<polygon points="5864,2773 5165,2709 5371,3274" style="fill:rgb(48,105,170)"/>
<polygon points="6085,1362 6029,1474 6362,1345" style="fill:rgb(13,68,135)"/>
<polygon points="3101,3828 3630,3935 3414,3599" style="fill:rgb(35,62,112)"/>
<polygon points="3414,3599 3630,3935 4054,3454" style="fill:rgb(30,61,117)"/>
<polygon points="4841,4053 4971,3852 4837,3746" style="fill:rgb(32,61,112)"/>
<polygon points="2024,1555 1907,1683 1987,1780" style="fill:rgb(98,93,119)"/>
<polygon points="2171,1279 1985,1422 2024,1555" style="fill:rgb(60,81,144)"/>
<polygon points="1893,1358 1985,1422 2171,1279" style="fill:rgb(55,79,145)"/>
<polygon points="1845,1915 1913,1919 1987,1780" style="fill:rgb(69,96,150)"/>
<polygon points="1987,1780 1913,1919 2550,1871" style="fill:rgb(78,97,141)"/>
<polygon points="1913,1919 1900,2040 2578,1980" style="fill:rgb(51,94,162)"/>
<polygon points="2606,233 2675,306 3320,265" style="fill:rgb(88,89,133)"/>
<polygon points="3320,265 2675,306 3069,804" style="fill:rgb(56,85,175)"/>
<polygon points="1907,1556 1907,1683 2024,1555" style="fill:rgb(54,81,143)"/>
<polygon points="1913,1919 1845,1915 1900,2040" style="fill:rgb(56,98,166)"/>
<polygon points="5968,3207 5864,2773 5371,3274" style="fill:rgb(47,107,177)"/>
<polygon points="2538,3454 3101,3828 3214,3387" style="fill:rgb(26,59,119)"/>
<polygon points="2538,3454 3110,3180 2449,3123" style="fill:rgb(6,55,131)"/>
<polygon points="2510,3532 2538,3454 2193,3555" style="fill:rgb(38,63,115)"/>
<polygon points="1985,1422 1907,1556 2024,1555" style="fill:rgb(40,75,151)"/>
<polygon points="1281,1990 1877,2258 1900,2040" style="fill:rgb(54,101,170)"/>
<polygon points="5906,2014 5923,2059 6370,2003" style="fill:rgb(62,87,122)"/>
<polygon points="5959,1662 6029,1474 5659,1262" style="fill:rgb(2,65,149)"/>
<polygon points="4837,3746 5142,3688 4751,3486" style="fill:rgb(12,53,116)"/>
<polygon points="5967,3479 5968,3207 5371,3274" style="fill:rgb(50,114,189)"/>
<polygon points="1845,1915 1987,1780 1822,1702" style="fill:rgb(77,95,139)"/>
<polygon points="1900,2040 1877,2258 2400,2376" style="fill:rgb(53,99,167)"/>
<polygon points="5734,735 5446,719 5685,999" style="fill:rgb(147,101,105)"/>
<polygon points="5734,735 5640,617 5446,719" style="fill:rgb(130,86,95)"/>
<polygon points="5446,719 5186,98 5098,658" style="fill:rgb(61,87,172)"/>
<polygon points="1822,1702 1987,1780 1907,1683" style="fill:rgb(64,81,132)"/>
<polygon points="5640,617 5617,586 5446,719" style="fill:rgb(106,82,112)"/>
<polygon points="6026,953 5734,735 5685,999" style="fill:rgb(159,103,107)"/>
<polygon points="5640,617 5821,546 5617,586" style="fill:rgb(65,84,151)"/>
<polygon points="1985,1422 1893,1358 1907,1556" style="fill:rgb(140,109,124)"/>
<polygon points="1792,1605 1822,1702 1907,1683" style="fill:rgb(63,74,114)"/>
<polygon points="1861,1222 1893,1358 2171,1279" style="fill:rgb(106,94,133)"/>
<polygon points="1792,1605 1907,1683 1907,1556" style="fill:rgb(155,114,120)"/>
<polygon points="1845,1915 1281,1990 1900,2040" style="fill:rgb(53,99,168)"/>
<polygon points="1877,2258 1933,2657 2400,2376" style="fill:rgb(69,113,175)"/>
<polygon points="2124,3385 2538,3454 2449,3123" style="fill:rgb(12,58,133)"/>
<polygon points="2124,3385 2449,3123 2214,2872" style="fill:rgb(2,57,143)"/>
<polygon points="2538,3454 2510,3532 3101,3828" style="fill:rgb(16,47,99)"/>
<polygon points="4837,3746 4971,3852 5142,3688" style="fill:rgb(18,55,115)"/>
<polygon points="4841,4053 4837,3746 4179,3782" style="fill:rgb(38,65,112)"/>
<polygon points="2395,0 2606,233 3320,265" style="fill:rgb(57,83,170)"/>
<polygon points="2675,306 2327,332 2691,1012" style="fill:rgb(54,89,186)"/>
<polygon points="6347,2077 5923,2059 6331,2270" style="fill:rgb(7,65,140)"/>
<polygon points="6029,1474 6085,1362 5659,1262" style="fill:rgb(25,70,131)"/>
<polygon points="1872,853 1933,1115 2536,1102" style="fill:rgb(60,98,199)"/>
<polygon points="1893,1358 1792,1605 1907,1556" style="fill:rgb(149,115,125)"/>
<polygon points="5617,586 5186,98 5446,719" style="fill:rgb(59,86,172)"/>
<polygon points="1774,1241 1792,1605 1893,1358" style="fill:rgb(170,118,129)"/>
<polygon points="1822,1702 1398,1789 1845,1915" style="fill:rgb(83,98,135)"/>
<polygon points="1933,1115 1861,1222 2171,1279" style="fill:rgb(32,72,150)"/>
<polygon points="6085,1362 6064,1053 5659,1262" style="fill:rgb(108,92,111)"/>
<polygon points="5734,735 5821,546 5640,617" style="fill:rgb(117,84,108)"/>
<polygon points="5617,586 5684,0 5186,98" style="fill:rgb(61,85,164)"/>
<polygon points="6064,1053 6026,953 5685,999" style="fill:rgb(167,106,111)"/>
<polygon points="2606,233 2327,332 2675,306" style="fill:rgb(101,98,134)"/>
<polygon points="1697,1164 1774,1241 1861,1222" style="fill:rgb(197,128,138)"/>
<polygon points="1746,1048 1861,1222 1933,1115" style="fill:rgb(45,75,149)"/>
<polygon points="1861,1222 1774,1241 1893,1358" style="fill:rgb(135,106,130)"/>
<polygon points="4091,4258 4841,4053 4179,3782" style="fill:rgb(24,36,71)"/>
<polygon points="5597,3778 5614,3721 5142,3688" style="fill:rgb(48,74,112)"/>
<polygon points="1653,3085 1909,2961 1933,2657" style="fill:rgb(52,96,164)"/>
<polygon points="1933,2657 1909,2961 2214,2872" style="fill:rgb(49,90,155)"/>
<polygon points="1653,3085 1933,2657 1275,2685" style="fill:rgb(48,93,160)"/>
<polygon points="5958,691 5821,546 5734,735" style="fill:rgb(89,90,125)"/>
<polygon points="2453,4049 4091,4258 3630,3935" style="fill:rgb(20,32,68)"/>
<polygon points="3630,3935 4091,4258 4179,3782" style="fill:rgb(23,36,72)"/>
<polygon points="6313,979 5958,691 6026,953" style="fill:rgb(116,100,114)"/>
<polygon points="6026,953 5958,691 5734,735" style="fill:rgb(134,101,108)"/>
<polygon points="1909,2961 2124,3385 2214,2872" style="fill:rgb(3,58,145)"/>
<polygon points="2510,3532 2421,3934 3101,3828" style="fill:rgb(6,34,74)"/>
<polygon points="1941,639 1872,853 2536,1102" style="fill:rgb(70,96,178)"/>
<polygon points="5967,3479 5371,3274 5355,3349" style="fill:rgb(52,85,129)"/>
<polygon points="6331,2270 5931,2311 6363,2369" style="fill:rgb(28,92,158)"/>
<polygon points="6331,2270 5923,2059 5931,2311" style="fill:rgb(16,75,146)"/>
<polygon points="5614,3721 5355,3349 5142,3688" style="fill:rgb(72,91,119)"/>
<polygon points="5931,2311 5925,2479 6363,2369" style="fill:rgb(29,96,165)"/>
<polygon points="6085,1362 6362,1345 6064,1053" style="fill:rgb(99,92,114)"/>
<polygon points="6363,2369 5925,2479 6549,2773" style="fill:rgb(28,109,190)"/>
<polygon points="1872,853 1746,1048 1933,1115" style="fill:rgb(59,100,201)"/>
<polygon points="1774,1241 1518,1494 1792,1605" style="fill:rgb(172,114,126)"/>
<polygon points="2606,233 2310,205 2327,332" style="fill:rgb(104,102,139)"/>
<polygon points="2327,332 1941,639 2536,1102" style="fill:rgb(56,93,191)"/>
<polygon points="2395,0 2310,205 2606,233" style="fill:rgb(64,88,175)"/>
<polygon points="1746,1048 1697,1164 1861,1222" style="fill:rgb(180,121,139)"/>
<polygon points="1792,1605 1417,1675 1822,1702" style="fill:rgb(31,69,132)"/>
<polygon points="1872,853 1712,908 1746,1048" style="fill:rgb(63,102,197)"/>
<polygon points="1857,354 1941,639 2327,332" style="fill:rgb(56,94,192)"/>
<polygon points="6806,1803 6370,2003 6913,2040" style="fill:rgb(1,63,153)"/>
<polygon points="6347,2077 6370,2003 5923,2059" style="fill:rgb(40,78,123)"/>
<polygon points="6064,1053 6313,979 6026,953" style="fill:rgb(142,94,102)"/>
<polygon points="1623,3382 2193,3555 2124,3385" style="fill:rgb(34,62,114)"/>
<polygon points="2124,3385 2193,3555 2538,3454" style="fill:rgb(35,65,122)"/>
<polygon points="3101,3828 2453,4049 3630,3935" style="fill:rgb(7,41,89)"/>
<polygon points="1376,1092 1697,1164 1746,1048" style="fill:rgb(74,101,184)"/>
<polygon points="1376,1092 1650,1208 1697,1164" style="fill:rgb(84,92,146)"/>
<polygon points="1697,1164 1650,1208 1774,1241" style="fill:rgb(215,131,141)"/>
<polygon points="2193,3555 2330,3716 2510,3532" style="fill:rgb(11,41,88)"/>
<polygon points="6549,2773 5925,2479 5864,2773" style="fill:rgb(30,115,199)"/>
<polygon points="6331,2270 6913,2040 6347,2077" style="fill:rgb(3,65,146)"/>
<polygon points="5597,3778 5142,3688 5683,3973" style="fill:rgb(3,51,123)"/>
<polygon points="6370,2003 6362,1345 6029,1474" style="fill:rgb(1,64,154)"/>
<polygon points="5683,3973 5142,3688 4971,3852" style="fill:rgb(8,54,123)"/>
<polygon points="5614,3721 5967,3479 5355,3349" style="fill:rgb(67,83,116)"/>
<polygon points="1740,831 1872,853 1781,700" style="fill:rgb(79,95,169)"/>
<polygon points="1740,831 1712,908 1872,853" style="fill:rgb(112,103,140)"/>
<polygon points="1781,700 1872,853 1941,639" style="fill:rgb(59,95,193)"/>
<polygon points="3716,63 2395,0 3320,265" style="fill:rgb(60,82,165)"/>
<polygon points="1857,354 1781,700 1941,639" style="fill:rgb(54,97,200)"/>
<polygon points="5684,0 2395,0 3716,63" style="fill:rgb(61,75,143)"/>
<polygon points="1439,1402 1518,1494 1650,1208" style="fill:rgb(216,134,146)"/>
<polygon points="1650,1208 1518,1494 1774,1241" style="fill:rgb(207,124,135)"/>
<polygon points="1424,1354 1650,1208 1376,1092" style="fill:rgb(5,59,156)"/>
<polygon points="1857,354 2327,332 1874,205" style="fill:rgb(114,108,144)"/>
<polygon points="6380,1054 6313,979 6064,1053" style="fill:rgb(118,92,104)"/>
<polygon points="6804,340 5684,0 5821,546" style="fill:rgb(57,82,159)"/>
<polygon points="5981,3557 5967,3479 5614,3721" style="fill:rgb(64,83,122)"/>
<polygon points="5968,3207 6549,2773 5864,2773" style="fill:rgb(41,108,184)"/>
<polygon points="1498,3721 2421,3934 2330,3716" style="fill:rgb(4,41,87)"/>
<polygon points="2330,3716 2421,3934 2510,3532" style="fill:rgb(7,36,76)"/>
<polygon points="6362,1345 6380,1054 6064,1053" style="fill:rgb(112,88,104)"/>
<polygon points="6417,948 6380,1054 6722,895" style="fill:rgb(78,84,123)"/>
<polygon points="1345,1481 1417,1675 1518,1494" style="fill:rgb(8,61,143)"/>
<polygon points="1518,1494 1417,1675 1792,1605" style="fill:rgb(24,66,134)"/>
<polygon points="1439,1402 1650,1208 1424,1354" style="fill:rgb(172,114,132)"/>
<polygon points="1417,1675 1398,1789 1822,1702" style="fill:rgb(74,89,137)"/>
<polygon points="5821,546 5684,0 5617,586" style="fill:rgb(55,85,168)"/>
<polygon points="5186,98 5684,0 3716,63" style="fill:rgb(65,80,149)"/>
<polygon points="6804,340 5821,546 5958,691" style="fill:rgb(51,80,163)"/>
<polygon points="6417,948 5958,691 6313,979" style="fill:rgb(80,87,128)"/>
<polygon points="1746,1048 1712,908 1376,1092" style="fill:rgb(55,103,209)"/>
<polygon points="1169,1850 1345,1884 1398,1789" style="fill:rgb(57,79,129)"/>
<polygon points="1274,2375 1933,2657 1877,2258" style="fill:rgb(68,119,186)"/>
<polygon points="1909,2961 1668,3289 2124,3385" style="fill:rgb(11,62,144)"/>
<polygon points="1418,4258 2453,4049 2421,3934" style="fill:rgb(17,39,80)"/>
<polygon points="5964,3723 5981,3557 5614,3721" style="fill:rgb(68,87,122)"/>
<polygon points="6553,3552 6549,2773 5968,3207" style="fill:rgb(41,113,194)"/>
<polygon points="1439,1402 1345,1481 1518,1494" style="fill:rgb(22,63,144)"/>
<polygon points="1376,1092 1712,908 1166,871" style="fill:rgb(53,104,210)"/>
<polygon points="1498,3721 2330,3716 2193,3555" style="fill:rgb(8,38,79)"/>
<polygon points="2421,3934 2453,4049 3101,3828" style="fill:rgb(9,43,89)"/>
<polygon points="1269,1604 1398,1789 1417,1675" style="fill:rgb(66,86,134)"/>
<polygon points="1398,1789 1345,1884 1845,1915" style="fill:rgb(63,93,144)"/>
<polygon points="1874,205 2327,332 2310,205" style="fill:rgb(110,107,143)"/>
<polygon points="1166,871 1712,908 1740,831" style="fill:rgb(106,106,155)"/>
<polygon points="6693,1308 6380,1054 6362,1345" style="fill:rgb(103,84,101)"/>
<polygon points="6380,1054 6417,948 6313,979" style="fill:rgb(93,91,116)"/>
<polygon points="6693,1308 6362,1345 6750,1359" style="fill:rgb(44,76,123)"/>
<polygon points="2395,0 2086,59 2310,205" style="fill:rgb(63,89,183)"/>
<polygon points="1276,1422 1345,1481 1424,1354" style="fill:rgb(148,106,128)"/>
<polygon points="1424,1354 1345,1481 1439,1402" style="fill:rgb(67,79,137)"/>
<polygon points="5723,4147 5683,3973 4971,3852" style="fill:rgb(23,58,113)"/>
<polygon points="5597,3778 5964,3723 5614,3721" style="fill:rgb(66,87,120)"/>
<polygon points="5723,4147 4971,3852 4841,4053" style="fill:rgb(37,62,107)"/>
<polygon points="1623,3382 1668,3289 1111,3099" style="fill:rgb(38,72,132)"/>
<polygon points="1653,3085 1668,3289 1909,2961" style="fill:rgb(5,61,149)"/>
<polygon points="5683,3973 5964,3723 5597,3778" style="fill:rgb(22,58,115)"/>
<polygon points="6553,3552 5968,3207 5967,3479" style="fill:rgb(47,116,197)"/>
<polygon points="1169,1850 1281,1990 1345,1884" style="fill:rgb(79,107,159)"/>
<polygon points="1345,1884 1281,1990 1845,1915" style="fill:rgb(77,108,161)"/>
<polygon points="2086,59 1874,205 2310,205" style="fill:rgb(66,91,179)"/>
<polygon points="1166,871 1740,831 1130,802" style="fill:rgb(106,103,150)"/>
<polygon points="6781,2744 6549,2773 6906,3270" style="fill:rgb(35,114,184)"/>
<polygon points="6913,2040 6370,2003 6347,2077" style="fill:rgb(7,65,129)"/>
<polygon points="1192,1575 1269,1604 1345,1481" style="fill:rgb(114,97,126)"/>
<polygon points="1345,1481 1269,1604 1417,1675" style="fill:rgb(14,63,140)"/>
<polygon points="1740,831 1781,700 1130,802" style="fill:rgb(64,96,187)"/>
<polygon points="586,1964 1274,2375 1281,1990" style="fill:rgb(62,119,189)"/>
<polygon points="1281,1990 1274,2375 1877,2258" style="fill:rgb(59,110,177)"/>
<polygon points="1376,1092 1276,1422 1424,1354" style="fill:rgb(4,62,161)"/>
<polygon points="1111,3099 1668,3289 1653,3085" style="fill:rgb(5,63,153)"/>
<polygon points="1668,3289 1623,3382 2124,3385" style="fill:rgb(33,67,129)"/>
<polygon points="6750,1359 6362,1345 6806,1803" style="fill:rgb(2,62,150)"/>
<polygon points="1062,1474 1192,1575 1276,1422" style="fill:rgb(21,75,163)"/>
<polygon points="1276,1422 1192,1575 1345,1481" style="fill:rgb(170,114,126)"/>
<polygon points="1269,1604 1169,1850 1398,1789" style="fill:rgb(119,111,128)"/>
<polygon points="1200,2789 1275,2685 1274,2375" style="fill:rgb(68,128,201)"/>
<polygon points="1274,2375 1275,2685 1933,2657" style="fill:rgb(72,128,196)"/>
<polygon points="1192,1575 1169,1850 1269,1604" style="fill:rgb(147,119,126)"/>
<polygon points="5683,3973 5889,4029 5964,3723" style="fill:rgb(12,55,121)"/>
<polygon points="6553,3552 5967,3479 5981,3557" style="fill:rgb(49,110,181)"/>
<polygon points="5903,4258 5723,4147 4841,4053" style="fill:rgb(25,45,86)"/>
<polygon points="6806,1803 6362,1345 6370,2003" style="fill:rgb(1,65,157)"/>
<polygon points="6693,1308 6722,895 6380,1054" style="fill:rgb(107,85,99)"/>
<polygon points="6417,948 6804,340 5958,691" style="fill:rgb(58,81,155)"/>
<polygon points="6913,2040 6331,2270 6363,2369" style="fill:rgb(15,79,153)"/>
<polygon points="5723,4147 5889,4029 5683,3973" style="fill:rgb(26,58,113)"/>
<polygon points="1275,2685 1200,2789 1653,3085" style="fill:rgb(51,99,169)"/>
<polygon points="1130,2914 1200,2789 565,2592" style="fill:rgb(59,112,183)"/>
<polygon points="6553,3552 5981,3557 6527,3816" style="fill:rgb(50,96,161)"/>
<polygon points="6549,2773 6781,2744 6363,2369" style="fill:rgb(19,108,188)"/>
<polygon points="7000,1192 6693,1308 6750,1359" style="fill:rgb(62,77,109)"/>
<polygon points="7000,1076 6722,895 6693,1308" style="fill:rgb(107,89,107)"/>
<polygon points="1192,1575 856,1720 1169,1850" style="fill:rgb(130,117,130)"/>
<polygon points="565,2592 1200,2789 1274,2375" style="fill:rgb(70,134,211)"/>
<polygon points="1108,1026 1062,1474 1276,1422" style="fill:rgb(7,71,168)"/>
<polygon points="1108,1026 1276,1422 1376,1092" style="fill:rgb(4,62,162)"/>
<polygon points="7000,2168 6913,2040 6363,2369" style="fill:rgb(9,79,158)"/>
<polygon points="6806,1803 7000,1321 6750,1359" style="fill:rgb(1,63,152)"/>
<polygon points="1130,802 1781,700 1150,376" style="fill:rgb(50,103,209)"/>
<polygon points="1166,871 1108,1026 1376,1092" style="fill:rgb(47,99,200)"/>
<polygon points="586,1964 1281,1990 1169,1850" style="fill:rgb(67,106,163)"/>
<polygon points="1200,2789 1130,2914 1653,3085" style="fill:rgb(52,98,166)"/>
<polygon points="1166,871 1099,952 1108,1026" style="fill:rgb(67,99,185)"/>
<polygon points="1108,1026 930,1404 1062,1474" style="fill:rgb(20,72,163)"/>
<polygon points="5723,4147 5903,4258 5889,4029" style="fill:rgb(34,60,105)"/>
<polygon points="6527,3816 5981,3557 5964,3723" style="fill:rgb(61,83,124)"/>
<polygon points="4091,4258 5903,4258 4841,4053" style="fill:rgb(24,33,66)"/>
<polygon points="6781,2744 7000,2168 6363,2369" style="fill:rgb(23,101,177)"/>
<polygon points="6913,2040 7000,1321 6806,1803" style="fill:rgb(1,73,167)"/>
<polygon points="1150,376 1781,700 1857,354" style="fill:rgb(53,99,201)"/>
<polygon points="1166,871 1130,802 1099,952" style="fill:rgb(73,101,187)"/>
<polygon points="6527,3816 5964,3723 6484,3930" style="fill:rgb(57,81,123)"/>
<polygon points="6781,2744 7000,3224 7000,2168" style="fill:rgb(41,117,188)"/>
<polygon points="1036,3237 1498,3721 1623,3382" style="fill:rgb(3,41,87)"/>
<polygon points="1623,3382 1498,3721 2193,3555" style="fill:rgb(6,39,84)"/>
<polygon points="891,1129 930,1404 1108,1026" style="fill:rgb(209,131,148)"/>
<polygon points="853,1660 856,1720 1192,1575" style="fill:rgb(49,79,145)"/>
<polygon points="891,1129 1108,1026 1099,952" style="fill:rgb(164,120,158)"/>
<polygon points="1036,3237 1111,3099 592,3153" style="fill:rgb(3,51,114)"/>
<polygon points="1130,2914 1111,3099 1653,3085" style="fill:rgb(1,62,155)"/>
<polygon points="7000,2168 7000,1321 6913,2040" style="fill:rgb(1,80,175)"/>
<polygon points="816,1339 898,1487 930,1404" style="fill:rgb(38,80,163)"/>
<polygon points="930,1404 898,1487 1062,1474" style="fill:rgb(40,78,152)"/>
<polygon points="7000,1321 7000,1192 6750,1359" style="fill:rgb(36,74,120)"/>
<polygon points="853,1660 1192,1575 1062,1474" style="fill:rgb(61,81,137)"/>
<polygon points="898,1487 853,1660 1062,1474" style="fill:rgb(166,117,128)"/>
<polygon points="7000,1192 7000,1076 6693,1308" style="fill:rgb(92,81,104)"/>
<polygon points="6722,895 6804,340 6417,948" style="fill:rgb(68,85,151)"/>
<polygon points="529,776 891,1129 1099,952" style="fill:rgb(59,112,219)"/>
<polygon points="898,1487 720,1623 853,1660" style="fill:rgb(120,108,134)"/>
<polygon points="6484,3930 5964,3723 5889,4029" style="fill:rgb(13,55,122)"/>
<polygon points="6553,3552 6906,3270 6549,2773" style="fill:rgb(40,113,185)"/>
<polygon points="891,1129 853,1270 930,1404" style="fill:rgb(220,139,156)"/>
<polygon points="678,1283 816,1339 853,1270" style="fill:rgb(80,94,155)"/>
<polygon points="853,1270 816,1339 930,1404" style="fill:rgb(191,132,150)"/>
<polygon points="720,1623 740,1783 856,1720" style="fill:rgb(123,114,136)"/>
<polygon points="574,2855 1111,3099 1130,2914" style="fill:rgb(1,65,161)"/>
<polygon points="1111,3099 1036,3237 1623,3382" style="fill:rgb(9,50,105)"/>
<polygon points="1874,205 1150,376 1857,354" style="fill:rgb(113,110,151)"/>
<polygon points="529,776 685,1200 891,1129" style="fill:rgb(61,115,221)"/>
<polygon points="685,1200 678,1283 853,1270" style="fill:rgb(170,115,139)"/>
<polygon points="513,184 1150,376 1874,205" style="fill:rgb(119,115,157)"/>
<polygon points="6518,4163 6484,3930 5889,4029" style="fill:rgb(10,57,127)"/>
<polygon points="7000,3224 6906,3270 7000,3634" style="fill:rgb(55,103,164)"/>
<polygon points="7000,3634 6906,3270 6553,3552" style="fill:rgb(46,89,148)"/>
<polygon points="720,1623 856,1720 853,1660" style="fill:rgb(113,110,134)"/>
<polygon points="856,1720 740,1783 1169,1850" style="fill:rgb(84,95,133)"/>
<polygon points="7000,1076 6804,340 6722,895" style="fill:rgb(72,89,157)"/>
<polygon points="816,1339 720,1623 898,1487" style="fill:rgb(35,79,160)"/>
<polygon points="725,3481 1366,3950 1498,3721" style="fill:rgb(1,54,113)"/>
<polygon points="1498,3721 1418,4258 2421,3934" style="fill:rgb(12,55,104)"/>
<polygon points="2453,4049 1418,4258 4091,4258" style="fill:rgb(21,35,70)"/>
<polygon points="6825,3837 6553,3552 6527,3816" style="fill:rgb(44,90,153)"/>
<polygon points="6906,3270 7000,3224 6781,2744" style="fill:rgb(45,122,188)"/>
<polygon points="6518,4163 6596,3932 6484,3930" style="fill:rgb(6,52,123)"/>
<polygon points="6484,3930 6596,3932 6527,3816" style="fill:rgb(48,77,117)"/>
<polygon points="489,1741 644,1881 740,1783" style="fill:rgb(7,47,120)"/>
<polygon points="740,1783 644,1881 1169,1850" style="fill:rgb(11,54,125)"/>
<polygon points="816,1339 678,1283 720,1623" style="fill:rgb(66,89,152)"/>
<polygon points="404,1857 586,1964 644,1881" style="fill:rgb(55,96,158)"/>
<polygon points="685,1200 853,1270 891,1129" style="fill:rgb(203,126,143)"/>
<polygon points="529,776 1099,952 1130,802" style="fill:rgb(68,106,201)"/>
<polygon points="489,1741 720,1623 678,1283" style="fill:rgb(165,134,150)"/>
<polygon points="489,1741 740,1783 720,1623" style="fill:rgb(122,115,136)"/>
<polygon points="644,1881 586,1964 1169,1850" style="fill:rgb(57,95,153)"/>
<polygon points="5903,4258 6518,4163 5889,4029" style="fill:rgb(30,61,113)"/>
<polygon points="6596,3932 6825,3837 6527,3816" style="fill:rgb(42,84,135)"/>
<polygon points="7000,4154 6825,3837 6596,3932" style="fill:rgb(33,75,131)"/>
<polygon points="768,4204 1418,4258 1366,3950" style="fill:rgb(2,48,98)"/>
<polygon points="1366,3950 1418,4258 1498,3721" style="fill:rgb(4,51,102)"/>
<polygon points="586,1964 565,2592 1274,2375" style="fill:rgb(70,137,215)"/>
<polygon points="1036,3237 725,3481 1498,3721" style="fill:rgb(2,46,99)"/>
<polygon points="6825,3837 7000,3634 6553,3552" style="fill:rgb(46,90,148)"/>
<polygon points="258,1662 489,1741 254,1602" style="fill:rgb(131,120,141)"/>
<polygon points="586,1964 478,2094 565,2592" style="fill:rgb(75,146,227)"/>
<polygon points="410,1929 478,2094 586,1964" style="fill:rgb(67,129,207)"/>
<polygon points="447,2543 574,2855 565,2592" style="fill:rgb(1,68,171)"/>
<polygon points="565,2592 574,2855 1130,2914" style="fill:rgb(1,65,165)"/>
<polygon points="404,1857 410,1929 586,1964" style="fill:rgb(66,108,170)"/>
<polygon points="478,2094 447,2543 565,2592" style="fill:rgb(75,144,225)"/>
<polygon points="404,1857 644,1881 489,1741" style="fill:rgb(4,49,123)"/>
<polygon points="258,1662 404,1857 489,1741" style="fill:rgb(4,42,121)"/>
<polygon points="290,2520 478,2094 0,2344" style="fill:rgb(79,155,237)"/>
<polygon points="290,2520 447,2543 478,2094" style="fill:rgb(79,149,230)"/>
<polygon points="7000,1076 7000,0 6804,340" style="fill:rgb(61,85,165)"/>
<polygon points="6804,340 7000,0 5684,0" style="fill:rgb(61,76,145)"/>
<polygon points="555,3052 1111,3099 574,2855" style="fill:rgb(19,77,163)"/>
<polygon points="555,3052 592,3153 1111,3099" style="fill:rgb(24,69,138)"/>
<polygon points="0,2835 555,3052 574,2855" style="fill:rgb(31,84,165)"/>
<polygon points="592,3153 725,3481 1036,3237" style="fill:rgb(2,42,94)"/>
<polygon points="674,370 706,405 1150,376" style="fill:rgb(74,104,189)"/>
<polygon points="1150,376 706,405 1130,802" style="fill:rgb(52,108,216)"/>
<polygon points="254,1602 489,1741 678,1283" style="fill:rgb(215,156,169)"/>
<polygon points="706,405 529,776 1130,802" style="fill:rgb(53,113,223)"/>
<polygon points="513,184 674,370 1150,376" style="fill:rgb(124,120,168)"/>
<polygon points="706,405 493,375 529,776" style="fill:rgb(55,113,222)"/>
<polygon points="254,1602 678,1283 685,1200" style="fill:rgb(146,120,158)"/>
<polygon points="0,1841 0,1983 410,1929" style="fill:rgb(72,121,190)"/>
<polygon points="447,2543 251,2563 574,2855" style="fill:rgb(1,71,174)"/>
<polygon points="251,2563 290,2520 0,2344" style="fill:rgb(14,87,187)"/>
<polygon points="555,3052 485,3283 592,3153" style="fill:rgb(1,48,106)"/>
<polygon points="592,3153 485,3283 725,3481" style="fill:rgb(0,46,102)"/>
<polygon points="529,776 254,1602 685,1200" style="fill:rgb(61,120,230)"/>
<polygon points="0,1983 478,2094 410,1929" style="fill:rgb(72,137,216)"/>
<polygon points="11,3075 485,3283 555,3052" style="fill:rgb(1,50,107)"/>
<polygon points="725,3481 768,4204 1366,3950" style="fill:rgb(1,43,94)"/>
<polygon points="6518,4163 7000,4154 6596,3932" style="fill:rgb(8,56,126)"/>
<polygon points="6825,3837 7000,4154 7000,3634" style="fill:rgb(39,84,149)"/>
<polygon points="7000,4258 7000,4154 6518,4163" style="fill:rgb(13,60,128)"/>
<polygon points="410,1929 404,1857 0,1841" style="fill:rgb(33,85,159)"/>
<polygon points="290,2520 251,2563 447,2543" style="fill:rgb(42,107,192)"/>
<polygon points="674,370 493,375 706,405" style="fill:rgb(86,107,181)"/>
<polygon points="0,1556 258,1662 254,1602" style="fill:rgb(66,101,173)"/>
<polygon points="513,184 493,375 674,370" style="fill:rgb(125,121,168)"/>
<polygon points="5903,4258 7000,4258 6518,4163" style="fill:rgb(37,68,114)"/>
<polygon points="2086,59 513,184 1874,205" style="fill:rgb(67,94,187)"/>
<polygon points="0,1841 258,1662 0,1556" style="fill:rgb(2,56,144)"/>
<polygon points="0,0 513,184 2086,59" style="fill:rgb(62,98,202)"/>
<polygon points="0,3587 725,3481 485,3283" style="fill:rgb(0,53,113)"/>
<polygon points="0,3587 768,4204 725,3481" style="fill:rgb(0,47,102)"/>
<polygon points="0,1841 404,1857 258,1662" style="fill:rgb(2,48,129)"/>
<polygon points="251,2563 0,2835 574,2855" style="fill:rgb(6,78,176)"/>
<polygon points="254,1602 529,776 0,1556" style="fill:rgb(64,124,237)"/>
<polygon points="0,1556 529,776 0,395" style="fill:rgb(64,125,237)"/>
<polygon points="0,395 529,776 493,375" style="fill:rgb(59,117,226)"/>
<polygon points="0,1983 0,2344 478,2094" style="fill:rgb(83,159,240)"/>
<polygon points="0,2344 0,2835 251,2563" style="fill:rgb(3,80,182)"/>
<polygon points="0,2835 11,3075 555,3052" style="fill:rgb(2,54,119)"/>
<polygon points="0,212 0,395 493,375" style="fill:rgb(130,125,180)"/>
<polygon points="0,2835 0,3587 11,3075" style="fill:rgb(1,58,122)"/>
<polygon points="11,3075 0,3587 485,3283" style="fill:rgb(0,57,123)"/>
<polygon points="0,0 0,212 513,184" style="fill:rgb(71,106,207)"/>
<polygon points="513,184 0,212 493,375" style="fill:rgb(125,120,171)"/>
<polygon points="2395,0 0,0 2086,59" style="fill:rgb(52,85,184)"/>
<polygon points="0,3587 81,4258 768,4204" style="fill:rgb(1,55,114)"/>
<polygon points="768,4204 81,4258 1418,4258" style="fill:rgb(1,49,102)"/>
<polygon points="0,3587 0,4258 81,4258" style="fill:rgb(18,56,107)"/>
</svg>