<?xml version="1.0" standalone="no"?>
<!DOCTYPE svg PUBLIC "-//W3C//DTD SVG 20010904//EN"
 "http://www.w3.org/TR/2001/REC-SVG-20010904/DTD/svg10.dtd">
<svg version="1.0" xmlns="http://www.w3.org/2000/svg"
 width="700.000000pt" height="700.000000pt" viewBox="0 0 700.000000 700.000000"
 preserveAspectRatio="xMidYMid meet">
<metadata>
Created by potrace 1.14, written by Peter Selinger 2001-2017
</metadata>
<g transform="translate(0.000000,700.000000) scale(0.100000,-0.100000)"
fill="#000000" stroke="none">
<path d="M0 3500 l0 -3500 3500 0 3500 0 0 3500 0 3500 -3500 0 -3500 0 0
-3500z m3688 3239 c850 -93 1503 -779 1558 -1635 l7 -104 -252 0 -251 0 0 43
c0 61 -26 221 -50 307 -27 94 -104 258 -167 352 -64 96 -187 225 -286 299 -94
71 -291 170 -397 199 -301 83 -609 59 -878 -70 -137 -66 -225 -125 -328 -222
-115 -109 -194 -217 -264 -362 -115 -235 -153 -477 -115 -726 22 -144 50 -233
115 -366 123 -253 313 -445 565 -571 177 -89 315 -121 575 -133 201 -10 317
-27 453 -66 961 -273 1502 -1292 1187 -2237 -218 -652 -794 -1113 -1485 -1188
-130 -14 -394 -7 -571 16 -605 76 -1162 311 -1639 691 -141 113 -386 358 -499
499 -576 723 -819 1638 -675 2549 51 322 145 615 294 921 533 1092 1656 1801
2873 1814 73 0 176 -4 230 -10z"/>
<path d="M1809 5669 c-133 -102 -398 -371 -502 -510 -289 -388 -463 -807 -534
-1294 -24 -168 -24 -562 0 -730 71 -486 245 -907 534 -1294 101 -135 367 -406
493 -503 402 -309 837 -493 1335 -564 173 -25 491 -25 605 -1 260 56 457 162
640 346 186 186 292 383 347 641 25 118 25 362 0 480 -55 258 -161 455 -347
641 -111 111 -199 176 -328 239 -172 86 -314 118 -572 131 -318 15 -524 66
-770 189 -608 304 -987 950 -957 1630 10 207 46 382 117 564 22 55 38 101 36
103 -2 2 -46 -29 -97 -68z"/>
</g>
</svg>
