<?xml version="1.0" standalone="no"?>
<!DOCTYPE svg PUBLIC "-//W3C//DTD SVG 20010904//EN"
 "http://www.w3.org/TR/2001/REC-SVG-20010904/DTD/svg10.dtd">
<svg version="1.0" xmlns="http://www.w3.org/2000/svg"
 width="700.000000pt" height="700.000000pt" viewBox="0 0 700.000000 700.000000"
 preserveAspectRatio="xMidYMid meet">
<metadata>
Created by potrace 1.14, written by Peter Selinger 2001-2017
</metadata>
<g transform="translate(0.000000,700.000000) scale(0.100000,-0.100000)"
fill="#000000" stroke="none">
<path d="M0 3500 l0 -3500 3500 0 3500 0 0 3500 0 3500 -3500 0 -3500 0 0
-3500z m3698 1990 c376 -40 730 -181 1027 -409 88 -67 228 -203 313 -306 338
-404 504 -942 452 -1466 -61 -612 -393 -1155 -912 -1493 -308 -200 -709 -317
-1085 -316 -670 2 -1302 348 -1673 915 -239 367 -356 849 -310 1283 51 477
258 904 597 1232 170 166 307 262 518 366 333 163 714 232 1073 194z"/>
</g>
</svg>
